<?xml version="1.0" standalone="no"?>
<!DOCTYPE svg PUBLIC "-//W3C//DTD SVG 20010904//EN"
 "http://www.w3.org/TR/2001/REC-SVG-20010904/DTD/svg10.dtd">
<svg version="1.0" xmlns="http://www.w3.org/2000/svg"
 width="378.000000pt" height="378.000000pt" viewBox="0 0 378.000000 378.000000"
 preserveAspectRatio="xMidYMid meet">
<metadata>
Created by potrace 1.11, written by Peter Selinger 2001-2013
</metadata>
<g transform="translate(0.000000,378.000000) scale(0.100000,-0.100000)"
fill="#000000" stroke="none">
<path d="M1920 3772 c-8 -4 -40 -23 -70 -42 -30 -20 -116 -69 -190 -109 -74
-41 -198 -109 -275 -151 -77 -43 -212 -117 -300 -165 -334 -184 -388 -215
-401 -232 -7 -10 -24 -52 -37 -93 -24 -73 -198 -560 -332 -930 -37 -102 -73
-195 -81 -207 -8 -12 -14 -36 -14 -52 0 -18 68 -168 174 -383 96 -194 234
-477 309 -629 91 -187 142 -282 158 -292 39 -24 134 -62 299 -121 85 -30 259
-93 385 -141 312 -118 405 -152 505 -185 96 -31 214 -47 233 -31 21 17 804
403 989 487 56 26 108 50 113 54 6 4 25 11 43 15 17 3 32 10 32 15 0 4 12 11
28 15 15 3 38 13 51 22 l23 15 -6 267 c-7 309 -16 523 -23 534 -2 4 -43 7 -91
7 -48 0 -161 5 -252 10 -189 11 -254 15 -548 31 -191 11 -214 10 -230 -4 -9
-9 -26 -20 -38 -24 -32 -13 -244 -238 -244 -259 0 -11 7 -28 15 -38 8 -11 15
-27 15 -37 0 -9 10 -19 23 -22 12 -3 162 -8 332 -12 171 -3 329 -8 352 -11 50
-6 49 -5 59 -170 l7 -121 -88 -88 -88 -88 -176 -8 c-97 -5 -257 -13 -356 -19
-99 -6 -223 -13 -275 -15 -52 -3 -136 -8 -187 -11 l-92 -6 -137 119 c-373 323
-631 550 -639 564 -8 11 -18 135 -34 399 -6 91 -17 255 -26 364 l-15 199 47
56 c57 66 280 313 482 534 80 88 154 163 166 167 12 4 115 14 231 20 115 7
330 20 478 29 236 14 271 15 290 2 23 -16 88 -70 364 -300 101 -84 190 -150
197 -148 7 3 66 67 131 142 182 210 187 216 189 234 1 9 14 42 29 74 14 32 26
62 26 67 0 6 4 18 10 28 13 23 40 109 40 126 0 23 -183 156 -237 172 -80 25
-672 204 -763 231 -47 13 -139 40 -205 60 -66 19 -156 46 -200 60 -87 27 -151
37 -175 25z"/>
</g>
</svg>
