<?xml version="1.0" encoding="UTF-8" ?>
<!DOCTYPE svg PUBLIC "-//W3C//DTD SVG 1.1//EN" "http://www.w3.org/Graphics/SVG/1.1/DTD/svg11.dtd">
<svg width="378pt" height="378pt" viewBox="0 0 378 378" version="1.1" xmlns="http://www.w3.org/2000/svg">
<path fill="#ffffff" d=" M 0.00 0.00 L 194.98 0.00 C 193.54 0.52 192.08 0.95 190.61 1.35 C 189.76 2.96 188.33 3.99 186.60 4.47 L 185.65 4.86 C 177.76 10.54 168.71 14.33 160.39 19.31 C 150.55 24.39 141.01 30.01 131.35 35.40 C 124.88 38.54 118.51 41.93 112.46 45.82 C 111.98 45.94 111.04 46.19 110.57 46.31 C 108.25 47.84 105.89 49.29 103.48 50.67 C 98.60 52.39 94.61 55.80 90.01 58.07 C 84.89 60.51 80.13 63.62 75.06 66.16 C 72.79 67.54 70.15 68.58 68.53 70.79 C 67.27 72.25 66.63 74.12 66.14 75.96 C 64.21 83.35 61.20 90.39 58.58 97.55 C 47.90 128.61 36.61 159.44 25.33 190.28 C 24.69 192.27 23.59 194.05 22.24 195.63 C 22.15 198.22 22.16 200.82 22.27 203.41 C 25.90 208.25 27.90 214.03 30.81 219.29 C 35.70 228.54 39.69 238.23 44.79 247.35 C 46.31 250.79 47.53 254.41 49.73 257.51 C 54.25 267.89 59.60 277.91 64.73 287.99 C 65.45 291.07 66.94 293.89 68.72 296.49 C 72.71 306.11 77.93 315.17 82.33 324.60 C 84.77 331.10 92.57 331.26 97.60 334.79 C 99.22 335.24 100.82 335.72 102.42 336.21 C 106.34 338.09 110.57 339.12 114.62 340.64 C 116.23 341.16 117.84 341.70 119.45 342.24 C 123.95 344.32 128.77 345.57 133.43 347.25 C 138.08 349.22 142.78 351.08 147.59 352.60 C 150.27 353.59 152.91 354.67 155.59 355.65 C 165.22 359.32 174.86 363.00 184.55 366.53 C 191.52 368.66 197.99 372.30 205.20 373.68 C 207.30 375.10 209.78 375.72 212.27 376.01 C 212.70 376.29 213.57 376.83 214.01 377.11 C 214.32 376.89 214.94 376.47 215.26 376.25 C 218.21 376.96 221.31 376.89 224.18 378.00 L 0.00 378.00 L 0.00 0.00 Z" />
<path fill="#bd3f3f" d=" M 194.98 0.00 L 199.96 0.00 C 201.08 0.61 202.19 1.22 203.30 1.84 C 202.66 1.99 201.38 2.28 200.74 2.43 C 205.50 8.70 212.48 12.74 217.59 18.67 C 219.56 20.97 223.08 21.24 224.77 23.84 C 226.80 26.91 230.40 28.38 232.48 31.39 C 234.71 34.90 238.87 36.41 241.37 39.71 C 243.69 40.09 245.52 41.61 247.28 43.07 C 247.10 43.68 246.92 44.30 246.75 44.92 C 248.27 46.18 249.80 47.43 251.33 48.68 C 236.65 50.45 221.90 51.51 207.23 53.30 C 197.74 54.73 188.03 54.57 178.65 56.81 C 181.94 57.76 185.34 57.17 188.64 56.62 C 198.37 55.00 208.26 54.90 218.03 53.69 C 227.95 52.13 238.19 51.34 248.11 53.27 C 241.13 54.60 234.02 54.93 226.99 55.95 C 216.80 57.38 206.38 57.23 196.32 59.60 C 200.16 60.77 204.12 59.80 207.98 59.31 C 216.98 57.81 226.15 58.66 235.17 57.30 C 235.64 58.43 236.12 59.56 236.61 60.69 C 230.34 60.43 224.16 61.62 217.95 62.23 C 206.87 63.50 195.67 63.69 184.69 65.73 C 188.66 67.23 192.94 66.05 197.02 65.77 C 210.26 63.77 223.70 64.11 236.98 62.59 C 241.71 62.43 246.60 61.22 251.16 63.05 C 243.78 64.17 236.42 65.61 228.94 65.85 C 221.04 66.32 213.14 68.10 205.23 67.51 C 202.07 66.83 199.13 68.92 195.99 68.95 C 180.30 70.39 164.62 71.95 148.94 73.46 C 146.54 73.59 145.88 76.25 145.29 78.13 C 146.95 77.22 148.59 76.26 150.22 75.31 C 146.33 80.81 141.85 85.86 137.33 90.85 C 139.01 90.91 140.70 90.97 142.39 91.04 C 136.84 97.91 130.32 103.91 124.69 110.72 C 120.24 114.95 116.82 120.10 112.25 124.23 C 108.28 129.55 103.11 133.81 99.18 139.17 C 93.05 145.25 87.71 152.03 81.97 158.47 C 81.81 161.41 82.08 164.35 82.60 167.24 C 83.34 171.47 82.21 175.93 83.78 180.02 C 83.62 188.03 84.70 195.94 85.23 203.91 C 86.74 210.36 85.09 217.06 86.53 223.52 C 87.42 227.63 86.62 231.86 87.11 236.01 C 88.48 242.28 87.44 248.78 89.07 255.02 C 88.65 254.76 87.83 254.23 87.42 253.97 C 86.97 251.07 87.27 247.90 85.54 245.37 C 84.43 243.72 84.07 241.77 84.00 239.81 C 84.60 241.21 85.16 242.62 85.72 244.04 C 86.17 238.97 86.32 233.86 85.54 228.82 C 80.74 231.04 83.61 237.26 79.73 240.14 C 78.80 240.01 77.87 239.89 76.95 239.76 C 76.62 240.53 76.29 241.29 75.96 242.06 C 75.41 241.50 74.85 240.95 74.30 240.40 C 74.59 239.85 75.17 238.75 75.46 238.20 C 73.52 237.66 71.47 237.31 69.71 236.30 C 67.96 234.46 66.61 232.26 64.60 230.68 C 65.32 229.96 66.05 229.25 66.78 228.55 C 66.26 227.64 65.74 226.74 65.22 225.84 C 64.25 226.69 63.28 227.54 62.32 228.40 C 61.63 227.98 60.94 227.57 60.25 227.17 C 60.34 225.96 60.44 224.76 60.53 223.56 C 58.87 223.29 57.20 223.03 55.54 222.77 C 55.82 222.03 56.09 221.30 56.37 220.58 C 54.21 220.19 52.12 219.52 50.09 218.69 C 50.77 218.36 52.12 217.70 52.80 217.38 C 50.83 216.84 48.58 216.59 47.24 214.85 C 46.45 213.71 44.38 212.43 43.66 214.39 C 42.94 217.25 42.86 220.23 42.48 223.15 C 43.64 222.14 44.80 221.14 45.96 220.13 C 48.04 221.41 50.09 222.75 52.10 224.13 C 49.35 227.41 45.22 228.58 41.84 230.94 C 38.24 223.29 34.72 215.60 30.88 208.06 C 29.38 205.10 27.42 202.35 26.36 199.18 C 27.04 197.18 27.89 195.25 28.78 193.34 C 29.66 193.83 30.54 194.33 31.42 194.83 C 31.39 193.77 31.36 192.73 31.33 191.68 C 33.20 190.35 35.30 190.08 37.30 191.40 C 36.64 190.18 36.00 188.95 35.37 187.72 C 39.68 184.21 42.34 179.21 46.36 175.42 C 48.91 172.90 51.39 170.31 53.93 167.78 C 53.27 167.51 52.62 167.25 51.97 166.99 C 57.80 165.65 59.82 159.58 63.91 155.95 C 67.82 152.34 70.01 147.20 74.30 143.99 C 75.30 144.23 76.29 144.50 77.26 144.82 C 76.69 145.80 76.12 146.78 75.55 147.77 C 76.59 148.06 77.64 148.35 78.69 148.65 C 78.16 146.02 76.62 143.04 78.42 140.55 C 83.25 132.88 89.12 125.90 95.24 119.22 C 103.47 108.51 113.01 98.86 120.76 87.78 C 123.38 84.10 127.16 81.49 129.91 77.92 C 133.52 73.22 137.10 68.47 141.13 64.10 C 142.81 62.22 145.19 61.27 147.41 60.21 C 148.61 56.99 149.40 53.44 151.82 50.86 C 154.93 47.50 158.13 44.22 161.10 40.73 C 161.64 40.88 162.18 41.03 162.73 41.18 C 166.64 31.39 175.27 24.71 181.81 16.77 C 184.71 12.35 189.50 9.39 191.46 4.33 C 189.51 4.42 187.57 4.56 185.65 4.86 L 186.60 4.47 C 188.33 3.99 189.76 2.96 190.61 1.35 C 192.08 0.95 193.54 0.52 194.98 0.00 Z" />
<path fill="#ffffff" d=" M 199.96 0.00 L 378.00 0.00 L 378.00 378.00 L 226.31 378.00 C 227.18 377.45 228.05 376.89 228.91 376.32 C 231.23 374.67 233.81 373.44 236.51 372.53 C 237.86 371.68 239.20 370.83 240.54 369.97 C 241.02 369.90 241.99 369.76 242.48 369.69 C 244.22 368.20 246.26 367.14 248.46 366.52 C 252.14 363.74 256.82 362.92 260.57 360.29 C 266.73 357.70 272.83 354.85 278.50 351.32 C 282.26 349.96 285.73 347.92 289.48 346.55 C 291.29 345.25 293.30 344.28 295.42 343.58 C 298.83 341.45 302.38 339.56 306.13 338.08 C 312.43 335.64 318.14 331.91 324.46 329.51 C 328.54 326.94 333.14 325.37 337.60 323.58 C 338.04 323.21 338.93 322.48 339.37 322.11 C 341.48 321.47 343.63 321.00 345.82 320.75 C 345.85 320.35 345.90 319.55 345.92 319.15 C 347.79 318.69 349.66 318.18 351.52 317.67 C 352.59 316.96 353.68 316.27 354.79 315.62 C 355.38 314.15 356.00 312.66 355.94 311.05 C 355.94 305.37 356.24 299.64 355.10 294.04 C 355.50 291.13 356.44 288.14 355.20 285.29 C 355.30 285.16 355.49 284.88 355.59 284.75 C 353.55 273.57 356.49 261.91 353.73 250.81 C 354.08 250.37 354.78 249.48 355.13 249.04 C 354.82 248.60 354.21 247.71 353.90 247.27 C 353.73 242.83 354.77 238.14 352.98 233.92 C 346.33 234.09 339.69 233.91 333.04 234.07 C 329.65 234.22 326.40 233.00 323.03 232.99 C 318.15 232.84 313.21 233.47 308.39 232.45 C 305.67 231.91 302.88 231.97 300.13 232.03 C 298.41 232.06 296.71 231.83 295.07 231.34 L 294.86 232.11 C 287.05 229.89 278.85 232.04 270.99 230.39 C 265.78 229.37 260.36 230.88 255.22 229.38 C 255.12 229.48 254.91 229.68 254.80 229.79 C 250.77 228.61 246.52 229.17 242.38 228.98 C 242.09 229.40 241.50 230.25 241.21 230.68 C 239.48 232.08 237.41 232.94 235.23 233.35 C 228.70 241.86 220.53 248.90 213.01 256.50 C 213.08 257.79 213.16 259.08 213.25 260.38 C 215.11 262.41 216.31 264.94 216.15 267.76 C 226.29 270.04 236.84 268.23 247.13 269.14 C 254.68 270.25 262.34 269.59 269.95 269.89 C 276.91 270.23 284.00 269.25 290.85 270.92 C 291.18 272.14 291.52 273.35 291.89 274.57 C 292.14 278.64 291.67 282.83 292.96 286.76 C 293.13 290.92 293.43 295.09 293.13 299.24 C 292.61 302.02 289.64 303.01 287.94 304.95 C 284.11 308.89 279.95 312.54 276.69 316.99 C 273.01 317.73 269.27 318.20 265.51 318.04 C 261.41 318.06 257.28 317.71 253.21 318.36 C 245.83 319.84 238.22 318.35 230.82 319.62 C 225.44 320.59 219.91 319.48 214.56 320.65 C 208.71 321.81 202.52 319.93 196.83 322.00 C 196.55 321.86 195.97 321.60 195.69 321.47 C 189.74 322.76 183.60 321.32 177.63 322.47 C 173.98 323.27 170.24 323.04 166.53 322.96 C 159.64 317.03 152.90 310.92 145.78 305.25 C 136.65 296.31 126.20 288.84 117.18 279.81 C 111.13 274.95 105.51 269.58 99.62 264.53 C 95.69 261.83 92.86 257.89 89.07 255.02 C 87.44 248.78 88.48 242.28 87.11 236.01 C 86.62 231.86 87.42 227.63 86.53 223.52 C 85.09 217.06 86.74 210.36 85.23 203.91 C 84.70 195.94 83.62 188.03 83.78 180.02 C 82.21 175.93 83.34 171.47 82.60 167.24 C 82.08 164.35 81.81 161.41 81.97 158.47 C 87.71 152.03 93.05 145.25 99.18 139.17 C 103.11 133.81 108.28 129.55 112.25 124.23 C 116.82 120.10 120.24 114.95 124.69 110.72 C 130.32 103.91 136.84 97.91 142.39 91.04 C 144.99 88.69 147.12 85.91 149.39 83.27 C 153.75 81.03 158.80 82.59 163.41 81.52 C 168.65 80.37 174.06 81.41 179.33 80.51 C 186.36 79.20 193.58 80.72 200.60 79.30 C 204.55 78.52 208.66 79.48 212.55 78.30 C 212.88 78.40 213.56 78.61 213.89 78.71 C 219.69 77.01 225.85 78.49 231.77 77.54 C 236.89 76.60 242.10 76.93 247.28 76.84 C 247.58 76.62 248.19 76.19 248.49 75.97 C 249.88 76.74 251.32 77.45 252.62 78.37 C 266.80 90.09 280.88 101.92 295.09 113.61 C 299.32 116.57 302.67 120.61 307.07 123.35 C 313.25 117.40 318.15 110.27 324.17 104.16 C 329.19 97.60 335.52 92.04 339.94 85.04 C 339.73 84.62 339.30 83.78 339.08 83.36 C 340.34 81.46 341.59 79.56 342.71 77.56 C 342.61 75.55 343.41 73.76 344.84 72.36 C 344.91 71.44 344.98 70.52 345.06 69.59 C 345.84 68.50 346.97 67.51 346.88 66.04 C 346.89 63.09 349.42 60.95 349.19 57.93 C 349.41 56.81 350.23 55.69 349.86 54.52 C 343.90 49.58 337.53 45.15 331.50 40.30 C 327.54 39.11 323.67 37.60 319.62 36.72 C 310.07 33.32 300.25 30.69 290.54 27.79 C 283.99 25.44 277.22 23.74 270.55 21.79 C 267.27 20.58 263.89 19.73 260.53 18.83 C 259.15 18.32 257.77 17.83 256.40 17.33 C 254.12 16.85 251.87 16.30 249.61 15.75 C 246.70 14.42 243.59 13.66 240.53 12.79 C 232.64 10.11 224.42 8.52 216.55 5.77 C 212.29 3.93 207.67 3.30 203.30 1.84 C 202.19 1.22 201.08 0.61 199.96 0.00 Z" />
<path fill="#a63737" d=" M 200.74 2.43 C 201.38 2.28 202.66 1.99 203.30 1.84 C 207.67 3.30 212.29 3.93 216.55 5.77 C 224.42 8.52 232.64 10.11 240.53 12.79 C 243.59 13.66 246.70 14.42 249.61 15.75 C 251.87 16.30 254.12 16.85 256.40 17.33 C 257.77 17.83 259.15 18.32 260.53 18.83 C 263.89 19.73 267.27 20.58 270.55 21.79 C 277.22 23.74 283.99 25.44 290.54 27.79 C 300.25 30.69 310.07 33.32 319.62 36.72 C 323.67 37.60 327.54 39.11 331.50 40.30 C 337.53 45.15 343.90 49.58 349.86 54.52 C 350.23 55.69 349.41 56.81 349.19 57.93 C 349.42 60.95 346.89 63.09 346.88 66.04 C 346.97 67.51 345.84 68.50 345.06 69.59 C 344.98 70.52 344.91 71.44 344.84 72.36 C 343.41 73.76 342.61 75.55 342.71 77.56 C 341.59 79.56 340.34 81.46 339.08 83.36 C 339.30 83.78 339.73 84.62 339.94 85.04 C 335.52 92.04 329.19 97.60 324.17 104.16 C 318.15 110.27 313.25 117.40 307.07 123.35 C 302.67 120.61 299.32 116.57 295.09 113.61 C 295.97 111.98 296.85 110.35 297.74 108.72 C 301.94 111.75 306.00 115.00 310.32 117.86 C 308.11 114.90 305.18 112.62 302.34 110.32 C 302.78 109.64 303.66 108.27 304.10 107.59 C 305.67 108.53 307.32 109.34 308.97 110.14 C 305.22 106.88 301.56 103.53 297.70 100.42 C 299.02 99.77 300.34 99.13 301.67 98.49 C 305.76 101.70 309.83 104.97 314.22 107.77 C 309.56 104.03 304.79 100.42 300.12 96.68 C 301.70 95.98 303.29 95.28 304.88 94.58 C 308.97 97.30 312.80 100.38 317.04 102.87 C 313.44 98.29 307.96 95.79 303.77 91.83 C 304.35 91.57 305.51 91.06 306.09 90.80 C 309.81 93.53 313.50 96.32 317.46 98.70 C 315.12 95.27 311.27 93.46 308.25 90.75 C 303.51 86.68 298.57 82.86 293.65 79.01 C 295.07 78.51 296.50 78.02 297.92 77.52 C 304.37 82.11 310.71 86.84 317.14 91.45 C 314.26 88.38 310.62 86.20 307.40 83.53 C 293.68 73.35 280.35 62.65 266.60 52.52 C 264.41 50.92 262.29 49.20 260.48 47.17 C 257.66 43.69 253.72 41.46 250.46 38.46 C 245.93 34.23 240.05 31.76 235.82 27.18 C 233.06 24.18 229.50 21.99 225.45 21.30 C 231.74 27.51 239.24 32.35 246.01 38.01 C 249.90 41.38 254.54 43.82 258.03 47.66 C 255.80 48.05 253.58 48.43 251.33 48.68 C 249.80 47.43 248.27 46.18 246.75 44.92 C 246.92 44.30 247.10 43.68 247.28 43.07 C 245.52 41.61 243.69 40.09 241.37 39.71 C 238.87 36.41 234.71 34.90 232.48 31.39 C 230.40 28.38 226.80 26.91 224.77 23.84 C 223.08 21.24 219.56 20.97 217.59 18.67 C 212.48 12.74 205.50 8.70 200.74 2.43 Z" />
<path fill="#a93838" d=" M 185.65 4.86 C 187.57 4.56 189.51 4.42 191.46 4.33 C 189.50 9.39 184.71 12.35 181.81 16.77 C 175.27 24.71 166.64 31.39 162.73 41.18 C 162.18 41.03 161.64 40.88 161.10 40.73 C 158.13 44.22 154.93 47.50 151.82 50.86 C 149.40 53.44 148.61 56.99 147.41 60.21 C 145.19 61.27 142.81 62.22 141.13 64.10 C 137.10 68.47 133.52 73.22 129.91 77.92 C 127.16 81.49 123.38 84.10 120.76 87.78 C 113.01 98.86 103.47 108.51 95.24 119.22 C 89.12 125.90 83.25 132.88 78.42 140.55 C 76.62 143.04 78.16 146.02 78.69 148.65 C 77.64 148.35 76.59 148.06 75.55 147.77 C 76.12 146.78 76.69 145.80 77.26 144.82 C 76.29 144.50 75.30 144.23 74.30 143.99 C 70.01 147.20 67.82 152.34 63.91 155.95 C 59.82 159.58 57.80 165.65 51.97 166.99 C 52.62 167.25 53.27 167.51 53.93 167.78 C 51.39 170.31 48.91 172.90 46.36 175.42 C 42.34 179.21 39.68 184.21 35.37 187.72 C 36.00 188.95 36.64 190.18 37.30 191.40 C 35.30 190.08 33.20 190.35 31.33 191.68 C 31.36 192.73 31.39 193.77 31.42 194.83 C 30.54 194.33 29.66 193.83 28.78 193.34 C 27.89 195.25 27.04 197.18 26.36 199.18 C 26.15 196.84 25.33 194.09 27.19 192.19 C 30.02 188.82 30.71 184.37 32.28 180.37 C 43.54 149.82 54.29 119.09 65.32 88.45 C 67.31 82.36 69.63 76.37 71.30 70.18 C 70.61 70.33 69.23 70.64 68.53 70.79 C 70.15 68.58 72.79 67.54 75.06 66.16 C 80.13 63.62 84.89 60.51 90.01 58.07 C 94.61 55.80 98.60 52.39 103.48 50.67 C 105.89 49.29 108.25 47.84 110.57 46.31 C 111.04 46.19 111.98 45.94 112.46 45.82 C 118.51 41.93 124.88 38.54 131.35 35.40 C 141.01 30.01 150.55 24.39 160.39 19.31 C 168.71 14.33 177.76 10.54 185.65 4.86 Z" />
<path fill="#9a3333" d=" M 225.45 21.30 C 229.50 21.99 233.06 24.18 235.82 27.18 C 240.05 31.76 245.93 34.23 250.46 38.46 C 253.72 41.46 257.66 43.69 260.48 47.17 C 260.20 47.41 259.64 47.89 259.35 48.13 C 272.14 58.02 285.27 67.45 297.92 77.52 C 296.50 78.02 295.07 78.51 293.65 79.01 C 285.47 72.64 277.19 66.40 269.02 60.02 C 265.30 57.23 262.00 53.71 257.57 52.04 C 260.56 58.08 267.72 60.08 272.25 64.74 C 283.21 73.85 295.00 81.87 306.09 90.80 C 305.51 91.06 304.35 91.57 303.77 91.83 C 295.46 84.87 286.54 78.69 278.06 71.94 C 270.77 66.15 263.39 60.46 255.75 55.13 C 256.94 57.23 258.21 59.37 260.29 60.71 C 268.79 66.82 276.69 73.71 285.24 79.75 C 291.97 84.45 298.12 89.93 304.88 94.58 C 303.29 95.28 301.70 95.98 300.12 96.68 C 291.57 90.40 283.50 83.50 275.01 77.13 C 268.72 72.49 262.99 67.08 256.20 63.15 C 271.32 74.97 286.43 86.81 301.67 98.49 C 300.34 99.13 299.02 99.77 297.70 100.42 C 288.93 93.86 280.43 86.95 271.81 80.19 C 266.73 76.10 261.97 71.22 255.74 68.91 C 257.74 72.33 261.46 74.05 264.37 76.57 C 267.25 78.70 269.62 81.44 272.44 83.65 C 282.42 88.83 290.06 97.34 299.26 103.64 C 300.90 104.93 302.43 106.35 304.10 107.59 C 303.66 108.27 302.78 109.64 302.34 110.32 C 291.23 101.52 279.88 93.03 268.71 84.31 C 264.50 81.06 260.73 77.10 255.80 74.93 C 259.34 80.74 265.93 83.69 271.08 87.89 C 279.81 95.03 289.19 101.35 297.74 108.72 C 296.85 110.35 295.97 111.98 295.09 113.61 C 280.88 101.92 266.80 90.09 252.62 78.37 C 251.32 77.45 249.88 76.74 248.49 75.97 C 248.19 76.19 247.58 76.62 247.28 76.84 C 242.10 76.93 236.89 76.60 231.77 77.54 C 225.85 78.49 219.69 77.01 213.89 78.71 C 213.56 78.61 212.88 78.40 212.55 78.30 C 208.37 76.97 204.03 75.53 199.59 75.90 C 192.75 76.45 185.90 76.87 179.04 77.11 C 169.25 77.50 159.47 80.82 149.67 78.65 C 156.82 77.13 164.17 77.53 171.40 76.66 C 185.83 75.09 200.34 74.21 214.72 72.20 C 221.66 72.33 228.46 70.62 235.39 70.63 C 238.34 70.57 241.10 69.14 244.10 69.57 C 246.17 70.00 247.62 68.31 249.13 67.22 C 234.22 69.15 219.11 67.90 204.19 69.83 C 204.45 69.25 204.97 68.09 205.23 67.51 C 213.14 68.10 221.04 66.32 228.94 65.85 C 236.42 65.61 243.78 64.17 251.16 63.05 C 246.60 61.22 241.71 62.43 236.98 62.59 C 223.70 64.11 210.26 63.77 197.02 65.77 C 192.94 66.05 188.66 67.23 184.69 65.73 C 195.67 63.69 206.87 63.50 217.95 62.23 C 224.16 61.62 230.34 60.43 236.61 60.69 C 236.12 59.56 235.64 58.43 235.17 57.30 C 226.15 58.66 216.98 57.81 207.98 59.31 C 204.12 59.80 200.16 60.77 196.32 59.60 C 206.38 57.23 216.80 57.38 226.99 55.95 C 234.02 54.93 241.13 54.60 248.11 53.27 C 238.19 51.34 227.95 52.13 218.03 53.69 C 208.26 54.90 198.37 55.00 188.64 56.62 C 185.34 57.17 181.94 57.76 178.65 56.81 C 188.03 54.57 197.74 54.73 207.23 53.30 C 221.90 51.51 236.65 50.45 251.33 48.68 C 253.58 48.43 255.80 48.05 258.03 47.66 C 254.54 43.82 249.90 41.38 246.01 38.01 C 239.24 32.35 231.74 27.51 225.45 21.30 Z" />
<path fill="#371212" d=" M 259.35 48.13 C 259.64 47.89 260.20 47.41 260.48 47.17 C 262.29 49.20 264.41 50.92 266.60 52.52 C 280.35 62.65 293.68 73.35 307.40 83.53 C 310.62 86.20 314.26 88.38 317.14 91.45 C 310.71 86.84 304.37 82.11 297.92 77.52 C 285.27 67.45 272.14 58.02 259.35 48.13 Z" />
<path fill="#712626" d=" M 257.57 52.04 C 262.00 53.71 265.30 57.23 269.02 60.02 C 277.19 66.40 285.47 72.64 293.65 79.01 C 298.57 82.86 303.51 86.68 308.25 90.75 C 311.27 93.46 315.12 95.27 317.46 98.70 C 313.50 96.32 309.81 93.53 306.09 90.80 C 295.00 81.87 283.21 73.85 272.25 64.74 C 267.72 60.08 260.56 58.08 257.57 52.04 Z" />
<path fill="#712626" d=" M 255.75 55.13 C 263.39 60.46 270.77 66.15 278.06 71.94 C 286.54 78.69 295.46 84.87 303.77 91.83 C 307.96 95.79 313.44 98.29 317.04 102.87 C 312.80 100.38 308.97 97.30 304.88 94.58 C 298.12 89.93 291.97 84.45 285.24 79.75 C 276.69 73.71 268.79 66.82 260.29 60.71 C 258.21 59.37 256.94 57.23 255.75 55.13 Z" />
<path fill="#762727" d=" M 169.18 57.68 C 172.09 57.41 175.11 56.22 178.00 57.23 C 168.30 58.01 158.74 60.25 148.95 59.59 C 155.61 58.17 162.50 59.00 169.18 57.68 Z" />
<path fill="#371212" d=" M 167.12 62.23 C 173.43 62.07 179.74 61.00 186.07 61.54 C 180.66 61.57 175.22 61.85 169.89 62.82 C 168.21 63.08 166.76 64.04 165.44 65.05 L 164.81 63.74 C 159.85 63.32 154.92 64.40 149.96 64.48 C 155.64 63.32 161.58 64.06 167.12 62.23 Z" />
<path fill="#371212" d=" M 256.20 63.15 C 262.99 67.08 268.72 72.49 275.01 77.13 C 283.50 83.50 291.57 90.40 300.12 96.68 C 304.79 100.42 309.56 104.03 314.22 107.77 C 309.83 104.97 305.76 101.70 301.67 98.49 C 286.43 86.81 271.32 74.97 256.20 63.15 Z" />
<path fill="#371212" d=" M 160.04 68.26 C 168.04 67.82 176.01 66.75 184.02 66.37 C 174.42 67.01 164.83 68.99 155.20 68.22 L 156.84 70.18 C 154.93 69.91 153.03 69.60 151.14 69.20 C 153.89 67.69 157.04 68.10 160.04 68.26 Z" />
<path fill="#b13b3b" d=" M 195.99 68.95 C 199.13 68.92 202.07 66.83 205.23 67.51 C 204.97 68.09 204.45 69.25 204.19 69.83 C 219.11 67.90 234.22 69.15 249.13 67.22 C 247.62 68.31 246.17 70.00 244.10 69.57 C 241.10 69.14 238.34 70.57 235.39 70.63 C 228.46 70.62 221.66 72.33 214.72 72.20 C 200.34 74.21 185.83 75.09 171.40 76.66 C 164.17 77.53 156.82 77.13 149.67 78.65 C 159.47 80.82 169.25 77.50 179.04 77.11 C 185.90 76.87 192.75 76.45 199.59 75.90 C 204.03 75.53 208.37 76.97 212.55 78.30 C 208.66 79.48 204.55 78.52 200.60 79.30 C 193.58 80.72 186.36 79.20 179.33 80.51 C 174.06 81.41 168.65 80.37 163.41 81.52 C 158.80 82.59 153.75 81.03 149.39 83.27 C 147.12 85.91 144.99 88.69 142.39 91.04 C 140.70 90.97 139.01 90.91 137.33 90.85 C 141.85 85.86 146.33 80.81 150.22 75.31 C 148.59 76.26 146.95 77.22 145.29 78.13 C 145.88 76.25 146.54 73.59 148.94 73.46 C 164.62 71.95 180.30 70.39 195.99 68.95 Z" />
<path fill="#712626" d=" M 255.74 68.91 C 261.97 71.22 266.73 76.10 271.81 80.19 C 280.43 86.95 288.93 93.86 297.70 100.42 C 301.56 103.53 305.22 106.88 308.97 110.14 C 307.32 109.34 305.67 108.53 304.10 107.59 C 302.43 106.35 300.90 104.93 299.26 103.64 C 290.06 97.34 282.42 88.83 272.44 83.65 C 269.62 81.44 267.25 78.70 264.37 76.57 C 261.46 74.05 257.74 72.33 255.74 68.91 Z" />
<path fill="#762727" d=" M 68.53 70.79 C 69.23 70.64 70.61 70.33 71.30 70.18 C 69.63 76.37 67.31 82.36 65.32 88.45 C 54.29 119.09 43.54 149.82 32.28 180.37 C 30.71 184.37 30.02 188.82 27.19 192.19 C 25.33 194.09 26.15 196.84 26.36 199.18 C 27.42 202.35 29.38 205.10 30.88 208.06 C 34.72 215.60 38.24 223.29 41.84 230.94 C 51.32 250.74 60.94 270.47 70.41 290.27 C 69.95 290.36 69.03 290.55 68.57 290.64 C 67.29 289.76 66.00 288.89 64.73 287.99 C 59.60 277.91 54.25 267.89 49.73 257.51 C 47.53 254.41 46.31 250.79 44.79 247.35 C 39.69 238.23 35.70 228.54 30.81 219.29 C 27.90 214.03 25.90 208.25 22.27 203.41 C 22.16 200.82 22.15 198.22 22.24 195.63 C 23.59 194.05 24.69 192.27 25.33 190.28 C 36.61 159.44 47.90 128.61 58.58 97.55 C 61.20 90.39 64.21 83.35 66.14 75.96 C 66.63 74.12 67.27 72.25 68.53 70.79 Z" />
<path fill="#712626" d=" M 255.80 74.93 C 260.73 77.10 264.50 81.06 268.71 84.31 C 279.88 93.03 291.23 101.52 302.34 110.32 C 305.18 112.62 308.11 114.90 310.32 117.86 C 306.00 115.00 301.94 111.75 297.74 108.72 C 289.19 101.35 279.81 95.03 271.08 87.89 C 265.93 83.69 259.34 80.74 255.80 74.93 Z" />
<path fill="#b73d3d" d=" M 43.66 214.39 C 44.38 212.43 46.45 213.71 47.24 214.85 C 48.58 216.59 50.83 216.84 52.80 217.38 C 52.12 217.70 50.77 218.36 50.09 218.69 C 52.12 219.52 54.21 220.19 56.37 220.58 C 56.09 221.30 55.82 222.03 55.54 222.77 C 57.20 223.03 58.87 223.29 60.53 223.56 C 60.44 224.76 60.34 225.96 60.25 227.17 C 60.94 227.57 61.63 227.98 62.32 228.40 C 63.28 227.54 64.25 226.69 65.22 225.84 C 65.74 226.74 66.26 227.64 66.78 228.55 C 66.05 229.25 65.32 229.96 64.60 230.68 C 66.61 232.26 67.96 234.46 69.71 236.30 C 71.47 237.31 73.52 237.66 75.46 238.20 C 75.17 238.75 74.59 239.85 74.30 240.40 C 74.85 240.95 75.41 241.50 75.96 242.06 C 76.29 241.29 76.62 240.53 76.95 239.76 C 77.87 239.89 78.80 240.01 79.73 240.14 C 83.61 237.26 80.74 231.04 85.54 228.82 C 86.32 233.86 86.17 238.97 85.72 244.04 C 85.16 242.62 84.60 241.21 84.00 239.81 C 84.07 241.77 84.43 243.72 85.54 245.37 C 87.27 247.90 86.97 251.07 87.42 253.97 C 87.83 254.23 88.65 254.76 89.07 255.02 C 92.86 257.89 95.69 261.83 99.62 264.53 C 105.51 269.58 111.13 274.95 117.18 279.81 C 126.20 288.84 136.65 296.31 145.78 305.25 C 152.90 310.92 159.64 317.03 166.53 322.96 C 170.24 323.04 173.98 323.27 177.63 322.47 C 183.60 321.32 189.74 322.76 195.69 321.47 C 195.97 321.60 196.55 321.86 196.83 322.00 C 202.52 319.93 208.71 321.81 214.56 320.65 C 219.91 319.48 225.44 320.59 230.82 319.62 C 238.22 318.35 245.83 319.84 253.21 318.36 C 257.28 317.71 261.41 318.06 265.51 318.04 C 265.18 318.30 264.51 318.83 264.18 319.09 C 262.39 319.29 260.12 318.67 258.89 320.36 C 257.14 321.91 257.36 324.29 257.37 326.40 C 256.04 326.44 254.72 326.49 253.40 326.53 C 251.54 329.76 250.59 333.35 249.74 336.95 C 249.14 340.30 246.37 342.51 244.11 344.80 C 243.63 344.15 243.14 343.51 242.67 342.88 C 241.78 347.33 238.81 350.82 236.72 354.73 C 234.84 358.04 232.73 361.22 230.62 364.39 C 230.06 363.96 229.50 363.54 228.95 363.12 C 227.76 365.62 226.75 368.23 226.43 371.01 C 228.39 369.35 230.35 367.69 232.23 365.94 C 230.34 369.10 227.58 372.38 228.91 376.32 C 228.05 376.89 227.18 377.45 226.31 378.00 L 224.18 378.00 C 221.31 376.89 218.21 376.96 215.26 376.25 C 214.94 376.47 214.32 376.89 214.01 377.11 C 213.57 376.83 212.70 376.29 212.27 376.01 C 209.78 375.72 207.30 375.10 205.20 373.68 C 209.80 373.04 214.19 374.94 218.77 374.83 C 217.49 373.29 216.19 371.77 214.88 370.26 C 214.46 371.09 214.04 371.92 213.63 372.76 C 206.80 371.50 200.49 368.46 194.02 366.03 C 175.40 358.96 156.69 352.12 138.11 344.93 C 123.07 339.73 108.03 334.53 93.16 328.85 C 90.08 327.84 87.61 325.56 86.27 322.62 C 80.87 311.89 76.05 300.88 70.41 290.27 C 60.94 270.47 51.32 250.74 41.84 230.94 C 45.22 228.58 49.35 227.41 52.10 224.13 C 50.09 222.75 48.04 221.41 45.96 220.13 C 44.80 221.14 43.64 222.14 42.48 223.15 C 42.86 220.23 42.94 217.25 43.66 214.39 Z" />
<path fill="#c24949" d=" M 242.38 228.98 C 246.52 229.17 250.77 228.61 254.80 229.79 C 254.91 229.68 255.12 229.48 255.22 229.38 C 260.36 230.88 265.78 229.37 270.99 230.39 C 278.85 232.04 287.05 229.89 294.86 232.11 C 292.93 239.02 291.61 246.21 292.45 253.40 C 292.66 255.79 294.48 257.53 296.12 259.09 C 290.66 258.84 285.18 259.17 279.72 258.72 C 267.17 257.75 254.58 257.43 242.00 256.93 C 237.00 256.59 232.01 255.48 226.98 256.01 C 224.58 256.24 222.18 256.45 219.77 256.49 C 221.71 251.26 226.22 247.79 229.73 243.67 C 233.46 239.26 238.22 235.70 241.21 230.68 C 241.50 230.25 242.09 229.40 242.38 228.98 Z" />
<path fill="#882d2d" d=" M 235.23 233.35 C 237.41 232.94 239.48 232.08 241.21 230.68 C 238.22 235.70 233.46 239.26 229.73 243.67 C 226.22 247.79 221.71 251.26 219.77 256.49 C 222.18 256.45 224.58 256.24 226.98 256.01 C 232.01 255.48 237.00 256.59 242.00 256.93 C 254.58 257.43 267.17 257.75 279.72 258.72 C 279.71 259.67 279.69 260.62 279.68 261.58 C 285.91 261.97 292.12 260.20 298.31 261.54 C 294.16 262.22 289.93 262.16 285.81 262.98 C 280.95 264.05 275.96 263.60 271.03 263.57 C 259.12 263.41 247.21 263.99 235.30 263.58 C 230.30 263.47 225.17 265.26 220.29 263.65 C 217.24 261.53 218.35 257.10 215.91 254.52 C 215.38 257.78 214.47 262.08 217.89 264.15 C 223.63 266.77 229.95 264.09 235.95 264.81 C 242.94 265.61 249.98 265.59 257.01 265.69 C 268.85 266.72 280.77 265.89 292.59 267.40 C 292.20 273.87 293.95 280.30 292.96 286.76 C 291.67 282.83 292.14 278.64 291.89 274.57 C 291.52 273.35 291.18 272.14 290.85 270.92 C 284.00 269.25 276.91 270.23 269.95 269.89 C 262.34 269.59 254.68 270.25 247.13 269.14 C 236.84 268.23 226.29 270.04 216.15 267.76 C 216.31 264.94 215.11 262.41 213.25 260.38 C 213.16 259.08 213.08 257.79 213.01 256.50 C 220.53 248.90 228.70 241.86 235.23 233.35 Z" />
<path fill="#a33636" d=" M 295.07 231.34 C 296.71 231.83 298.41 232.06 300.13 232.03 C 299.76 241.40 297.65 250.91 300.19 260.16 C 298.83 259.79 297.48 259.43 296.12 259.09 C 294.48 257.53 292.66 255.79 292.45 253.40 C 291.61 246.21 292.93 239.02 294.86 232.11 L 295.07 231.34 Z" />
<path fill="#bf4040" d=" M 300.13 232.03 C 302.88 231.97 305.67 231.91 308.39 232.45 C 313.21 233.47 318.15 232.84 323.03 232.99 C 326.40 233.00 329.65 234.22 333.04 234.07 C 339.69 233.91 346.33 234.09 352.98 233.92 C 354.77 238.14 353.73 242.83 353.90 247.27 C 354.21 247.71 354.82 248.60 355.13 249.04 C 354.78 249.48 354.08 250.37 353.73 250.81 C 356.49 261.91 353.55 273.57 355.59 284.75 C 355.49 284.88 355.30 285.16 355.20 285.29 C 356.44 288.14 355.50 291.13 355.10 294.04 C 356.24 299.64 355.94 305.37 355.94 311.05 C 356.00 312.66 355.38 314.15 354.79 315.62 C 353.68 316.27 352.59 316.96 351.52 317.67 C 349.66 318.18 347.79 318.69 345.92 319.15 C 345.90 319.55 345.85 320.35 345.82 320.75 C 343.63 321.00 341.48 321.47 339.37 322.11 C 338.93 322.48 338.04 323.21 337.60 323.58 C 333.14 325.37 328.54 326.94 324.46 329.51 C 318.14 331.91 312.43 335.64 306.13 338.08 C 302.38 339.56 298.83 341.45 295.42 343.58 C 293.30 344.28 291.29 345.25 289.48 346.55 C 285.73 347.92 282.26 349.96 278.50 351.32 C 272.83 354.85 266.73 357.70 260.57 360.29 C 256.82 362.92 252.14 363.74 248.46 366.52 C 246.26 367.14 244.22 368.20 242.48 369.69 C 241.99 369.76 241.02 369.90 240.54 369.97 C 239.20 370.83 237.86 371.68 236.51 372.53 C 233.81 373.44 231.23 374.67 228.91 376.32 C 227.58 372.38 230.34 369.10 232.23 365.94 C 240.75 357.58 249.22 349.18 257.59 340.67 C 264.43 332.69 272.80 326.12 278.96 317.54 C 285.39 310.30 292.74 303.97 299.61 297.18 C 300.22 284.84 299.11 272.47 300.19 260.16 C 297.65 250.91 299.76 241.40 300.13 232.03 Z" />
<path fill="#371212" d=" M 215.91 254.52 C 218.35 257.10 217.24 261.53 220.29 263.65 C 225.17 265.26 230.30 263.47 235.30 263.58 C 247.21 263.99 259.12 263.41 271.03 263.57 C 275.96 263.60 280.95 264.05 285.81 262.98 C 285.49 263.48 284.84 264.48 284.52 264.98 C 288.75 264.98 293.33 263.51 297.24 265.74 C 297.84 264.68 298.43 263.62 299.04 262.57 C 299.68 274.09 298.93 285.65 299.61 297.18 C 292.74 303.97 285.39 310.30 278.96 317.54 C 278.40 317.40 277.26 317.13 276.69 316.99 C 279.95 312.54 284.11 308.89 287.94 304.95 C 289.64 303.01 292.61 302.02 293.13 299.24 C 293.43 295.09 293.13 290.92 292.96 286.76 C 293.95 280.30 292.20 273.87 292.59 267.40 C 280.77 265.89 268.85 266.72 257.01 265.69 C 249.98 265.59 242.94 265.61 235.95 264.81 C 229.95 264.09 223.63 266.77 217.89 264.15 C 214.47 262.08 215.38 257.78 215.91 254.52 Z" />
<path fill="#bd4646" d=" M 218.71 258.71 C 221.87 257.02 225.55 257.60 228.99 257.62 C 232.99 257.68 236.94 258.25 240.91 258.69 C 246.02 259.25 251.18 258.75 256.29 259.39 C 243.80 261.12 231.22 259.04 218.71 258.71 Z" />
<path fill="#712626" d=" M 279.72 258.72 C 285.18 259.17 290.66 258.84 296.12 259.09 C 297.48 259.43 298.83 259.79 300.19 260.16 C 299.11 272.47 300.22 284.84 299.61 297.18 C 298.93 285.65 299.68 274.09 299.04 262.57 C 298.43 263.62 297.84 264.68 297.24 265.74 C 293.33 263.51 288.75 264.98 284.52 264.98 C 284.84 264.48 285.49 263.48 285.81 262.98 C 289.93 262.16 294.16 262.22 298.31 261.54 C 292.12 260.20 285.91 261.97 279.68 261.58 C 279.69 260.62 279.71 259.67 279.72 258.72 Z" />
<path fill="#ba3f3f" d=" M 219.50 260.78 C 222.67 259.35 226.26 260.12 229.60 260.31 C 226.42 261.67 222.84 260.85 219.50 260.78 Z" />
<path fill="#b23b3b" d=" M 239.49 261.68 C 242.16 260.49 245.17 261.14 248.00 260.99 C 251.07 261.14 254.35 260.48 257.25 261.79 C 251.34 262.11 245.39 262.17 239.49 261.68 Z" />
<path fill="#903030" d=" M 64.73 287.99 C 66.00 288.89 67.29 289.76 68.57 290.64 C 69.03 290.55 69.95 290.36 70.41 290.27 C 76.05 300.88 80.87 311.89 86.27 322.62 C 87.61 325.56 90.08 327.84 93.16 328.85 C 108.03 334.53 123.07 339.73 138.11 344.93 C 156.69 352.12 175.40 358.96 194.02 366.03 C 200.49 368.46 206.80 371.50 213.63 372.76 C 214.04 371.92 214.46 371.09 214.88 370.26 C 216.19 371.77 217.49 373.29 218.77 374.83 C 214.19 374.94 209.80 373.04 205.20 373.68 C 197.99 372.30 191.52 368.66 184.55 366.53 C 174.86 363.00 165.22 359.32 155.59 355.65 C 152.91 354.67 150.27 353.59 147.59 352.60 C 142.78 351.08 138.08 349.22 133.43 347.25 C 128.77 345.57 123.95 344.32 119.45 342.24 C 117.84 341.70 116.23 341.16 114.62 340.64 C 110.57 339.12 106.34 338.09 102.42 336.21 C 100.82 335.72 99.22 335.24 97.60 334.79 C 92.57 331.26 84.77 331.10 82.33 324.60 C 77.93 315.17 72.71 306.11 68.72 296.49 C 66.94 293.89 65.45 291.07 64.73 287.99 Z" />
<path fill="#9f3535" d=" M 265.51 318.04 C 269.27 318.20 273.01 317.73 276.69 316.99 C 277.26 317.13 278.40 317.40 278.96 317.54 C 272.80 326.12 264.43 332.69 257.59 340.67 C 249.22 349.18 240.75 357.58 232.23 365.94 C 230.35 367.69 228.39 369.35 226.43 371.01 C 226.75 368.23 227.76 365.62 228.95 363.12 C 229.50 363.54 230.06 363.96 230.62 364.39 C 232.73 361.22 234.84 358.04 236.72 354.73 C 238.81 350.82 241.78 347.33 242.67 342.88 C 243.14 343.51 243.63 344.15 244.11 344.80 C 246.37 342.51 249.14 340.30 249.74 336.95 C 250.59 333.35 251.54 329.76 253.40 326.53 C 254.72 326.49 256.04 326.44 257.37 326.40 C 257.36 324.29 257.14 321.91 258.89 320.36 C 260.12 318.67 262.39 319.29 264.18 319.09 C 264.51 318.83 265.18 318.30 265.51 318.04 Z" />
</svg>
